<svg width="64" height="64" viewBox="0 0 64 64" fill="none" xmlns="http://www.w3.org/2000/svg">
<path fill-rule="evenodd" clip-rule="evenodd" d="M40.9346 44.0856C46.5763 43.4165 51.4885 39.9641 52.1059 36.8094C53.0787 31.84 52.9984 24.6824 52.9984 24.6824C52.9984 14.9812 46.5989 12.1376 46.5989 12.1376C43.3722 10.6657 37.8314 10.0467 32.075 10H31.9336C26.1771 10.0467 20.64 10.6657 17.4131 12.1376C17.4131 12.1376 11.0133 14.9812 11.0133 24.6824C11.0133 25.2705 11.0103 25.8891 11.0071 26.5331C10.9982 28.3215 10.9884 30.3058 11.0405 32.3768C11.2729 41.8641 12.7917 51.2143 21.6235 53.536C25.6956 54.6065 29.1918 54.8306 32.0075 54.6768C37.1138 54.3957 39.9803 52.8669 39.9803 52.8669L39.8119 49.1872C39.8119 49.1872 36.1629 50.33 32.0648 50.1908C28.0046 50.0525 23.7182 49.7559 23.0616 44.8048C23.0009 44.3699 22.9706 43.9049 22.9706 43.4165C22.9706 43.4165 26.9563 44.3841 32.0075 44.614C35.0962 44.7547 37.9927 44.4342 40.9346 44.0856ZM45.4497 37.1816V25.4351C45.4497 23.0343 44.8343 21.1266 43.5983 19.7151C42.3232 18.3037 40.6537 17.5802 38.5815 17.5802C36.1835 17.5802 34.3677 18.4955 33.1674 20.3264L32 22.2696L30.8329 20.3264C29.6324 18.4955 27.8166 17.5802 25.4188 17.5802C23.3464 17.5802 21.6769 18.3037 20.4021 19.7151C19.1658 21.1266 18.5504 23.0343 18.5504 25.4351V37.1816H23.236V25.7803C23.236 23.3769 24.2541 22.1571 26.2907 22.1571C28.5424 22.1571 29.6712 23.6041 29.6712 26.4656V32.7061H34.3292V26.4656C34.3292 23.6041 35.4577 22.1571 37.7094 22.1571C39.7459 22.1571 40.7641 23.3769 40.7641 25.7803V37.1816H45.4497Z" fill="#e5e7eb"/>
</svg>
